<?xml version="1.0" encoding="UTF-8"?>
<svg id="_レイヤー_1" data-name=" レイヤー 1" xmlns="http://www.w3.org/2000/svg" viewBox="0 0 294.2 360.81">
  <defs>
    <style>
      .cls-1 {
        fill: #fff;
      }

      .cls-2 {
        isolation: isolate;
      }

      .cls-3 {
        stroke: #231815;
        stroke-width: 2px;
      }

      .cls-3, .cls-4 {
        fill: none;
        stroke-miterlimit: 10;
      }

      .cls-5 {
        fill: #040000;
      }

      .cls-4 {
        stroke: #040000;
        stroke-width: .5px;
      }

      .cls-6 {
        fill: #231815;
      }
    </style>
  </defs>
  <rect class="cls-3" x="1" y="1" width="292.2" height="292.2"/>
  <g>
    <g>
      <path class="cls-6" d="M229.9,85.2c11.9,10.1,20.3,27.1,34.4,34.3l4.9-23.5c-12.8-.6-27.7-5.1-39.3-10.8h0Z"/>
      <path class="cls-6" d="M255.8,73.6c-8.6,9.2-21.5,8.4-32.6,2.8l-1.4,3.6c2.5,1.1,4.8,2.6,6.9,4.3,17.3,7.1,30.9,9.1,41.2,8.1l2-9.6c1.1-3.6,1.5-7.2,1-10.3-3.7-2.1-5-5.2-4.5-8.1-1.5-1.2-3.2-2.1-5.5-2.8l-1.3-.4c-.4,3.6-2.1,7.8-5.8,12.4h0Z"/>
      <path class="cls-6" d="M272.8,71.6c-.5-2.5-1.6-4.6-3.5-6.4,0,2.4,1.5,4.7,3.5,6.4Z"/>
      <path class="cls-6" d="M258.4,60.2l-12.9-3.9c-10.1-3.1-16.1,2.4-18.9,11.8l-2.2,5.6c13.6,5.2,29.2,3.5,34-13.5Z"/>
      <path class="cls-6" d="M237.7,136.2c-2.8,4.5-3.1,9.6-1.9,14.5,11.8-.1,22.4-7.1,25.7-18.2l2-9.4c-18.1-7-27.2-30.7-42.8-40.3l-3.8,9.6c16.8,6.7,29.8,25.3,19.8,45-8,16-29.8-.6-18.4-13.5-9,10.8,8.9,26.4,15.5,12.1,6.5-17.3-3.7-34.1-17.7-41.4l-7.2,18.1c3-.7,6.5-.7,10.3,.2-4.4-.7-8.1,.1-11.2,1.9l-.6,1.4c-4.2,13.9,4.5,28.8,19.5,33.3,2.1,.6,4.1,1,6.2,1.2-.3-5,.9-10,4.6-14.5h0Z"/>
    </g>
    <g>
      <path class="cls-6" d="M247,212.5c12.3,9.5-4.4,28.9-10.1,11.7,5.6,14.6,19.2-.6,9.2-9.3-18-8.8-37.5,3.8-55.9,6.4,12.3,2.2,25.9,6.6,35.7,13l-.1-.1c8.2,4.3,13.5,14.4,14,23.5,15.6-13.8,18.9-37.1,28.9-69.8,2.5-8.2-.8-16.7-7.6-21.3,1.3,3.8,.8,8.8-2.1,15.2,3.5-9.5,.9-15.3-4.2-18l-5.4-1.6c-11.8-1.6-28.6,6.6-29,20.3-1.2-12.6,8.2-20.8,18.3-23.6l-36.2-10.9c-17.5,4.2-30.5,34.5-10.5,43.7-24.7-9.2-12.4-40.5,7-44.8l-5.7-1.7c-10.2-3.1-21,2.7-24,12.8l-13.7,45.4c24.6,38,61.5-9.8,91.4,9.1h0Zm-30.1-31.9c2.5-15.6-21.1-12.5-19.6,1.5-2.3-16.9,25-18.8,22.8-1-3.8,32.3-48,35-61.7,13.4,14.5,18.6,52.2,13.4,58.5-13.9h0Z"/>
      <path class="cls-6" d="M218.8,256c1.1,.2,2,.6,2.8,1.1-1-.5-1.9-.8-2.8-1.1-5.4-1.3-13.5,.4-12.1,8.3,2,2.4,4,4.2,6,5.6,9.3-1.9,16.5-4.7,22.3-8.5,2.1-12.4-8.6-31.2-46.8-39.9-11.6,1.2-22.7-2.1-32.6-18.1l-2.6,8.5c-1.5,4.9-1.3,10.1-.1,15.3,17-7.3,44.6-2.9,47.9,17.4,2,25.7-20.8,24.6-23.4,11.4-.4-1.3-.5-2.6-.2-4-.1,1.4-.1,2.8,.2,4,2.4,6.9,15.2,11.3,17.7,2.4l.2-.5c9.1-25.9-23-36.3-42.3-30.2,4.9,19.7,25.1,38.9,30.4,40.5l12.6,3.8c4.5-.3,8.7-.8,12.6-1.4-6.3-7-3.1-19,10.2-14.6h0Z"/>
    </g>
  </g>
  <rect class="cls-4" x="10.4" y="10.4" width="273.3" height="273.3"/>
  <path class="cls-6" d="M88.8,67.3c7.9,7.5,8.2,19.9,.7,27.8s-19.9,8.2-27.8,.7S27.4,56.7,37.7,45.9c10.4-10.9,43.3,14,51.1,21.4h0Z"/>
  <path class="cls-1" d="M63.9,53.5c3.7,1.9,21.9,12.6,19.5,15.2-1.6,1.8-5.3-1.1-19.2-9.2-15.2-8.8-24-11.4-22.4-13,3.1-3.2,17.1,4.4,22.1,7h0Z"/>
  <circle class="cls-1" cx="85.7" cy="71" r="1.3"/>
  <path class="cls-6" d="M69.4,109.3c10.5,2.5,17,13.1,14.5,23.7-2.5,10.5-13.1,17-23.7,14.5-10.5-2.5-49.3-16.7-45.8-31.2,3.5-14.5,44.4-9.5,55-7h0Z"/>
  <path class="cls-1" d="M40.8,109.8c4.2-.2,25.2,0,24.5,3.4-.5,2.4-5.1,1.7-21.2,1.7-17.5,0-26.5,2.2-25.9-.1,1.1-4.3,17-4.7,22.6-5Z"/>
  <circle class="cls-1" cx="67.7" cy="113" r="1.3"/>
  <circle class="cls-1" cx="21.7" cy="187.8" r="1.3"/>
  <path class="cls-6" d="M102.6,72.9c3.1,10.4,14,16.3,24.4,13.3,10.4-3,16.3-14,13.3-24.4S121,13.4,106.7,17.6c-14.4,4.3-7.2,44.9-4.1,55.3h0Z"/>
  <path class="cls-1" d="M101.6,44.3c0,4.2,1.3,25.2,4.7,24.3,2.4-.6,1.4-5.2,.6-21.3-.9-17.5,.8-26.5-1.4-25.9-4.3,1.4-3.9,17.3-3.9,22.9h0Z"/>
  <circle class="cls-1" cx="106.1" cy="71" r="1.3"/>
  <circle class="cls-1" cx="117.7" cy="16.4" r="1.3"/>
  <path class="cls-6" d="M38.6,176.5s0,.9-.1,2.5c0,1.6-.1,4,0,7,.2,6,.7,14.8,3.5,24.8,1.4,5,3.4,10.3,6.3,15.5,2.8,5.2,6.7,10.2,11.6,14.5,4.9,4.2,10.7,7.8,17.1,9.9,3.2,1.1,6.6,1.8,10,2.1s6.8,.1,10.2-.4c3.3-.7,6.6-1.8,9.6-3.4,3-1.6,5.8-3.6,8.3-5.9,5-4.6,8.9-10.3,11.9-16.2,1.5-2.9,2.8-6,3.9-9,1.1-3.1,1.9-6.1,2.8-9.1,1.6-6,2.8-11.9,3.5-17.4,.2-1.4,.4-2.7,.6-4.1,.1-1.3,.2-2.7,.4-3.9,.2-2.6,.5-5.1,.6-7.4,.2-4.7,.5-9,.5-12.6,.1-7.3,.1-12.3,.1-14,0-1.8,.1-6.6,.1-13.6,.1-7.1,.1-16.5,.8-27.4s1.9-23.3,5.3-36.1c1-3.2,1.9-6.3,2.9-9.6,1.3-3.1,2.6-6.3,3.9-9.4,2.9-6.2,6.5-12.3,11.5-17.3,4.9-5,11.4-8.5,17.9-10.2,6.6-1.8,13.2-2.3,19.5-2.2,12.7,.2,24.3,2.4,33.8,5.4,9.5,3,17.1,6.4,22,9.6,2.4,1.6,4.2,3,5.3,4.1,1.1,1,1.7,1.7,1.7,1.7,0,0-.6-.6-1.7-1.6s-2.9-2.4-5.4-4c-4.9-3-12.6-6.2-22.1-9-9.5-2.7-21.1-4.6-33.6-4.5-6.2,.1-12.7,.7-18.9,2.6-6.2,1.8-12,5.2-16.5,10s-7.8,10.7-10.4,16.7c-1.2,3.1-2.4,6.2-3.5,9.2-.9,3.2-1.8,6.3-2.6,9.3-2.9,12.5-3.9,24.7-4.3,35.4s-.2,20.1-.2,27.2c.1,7.1,.1,11.9,.1,13.7s0,6.8-.4,14.2c-.1,3.7-.5,8-.8,12.8-.2,2.4-.5,4.9-.8,7.6-.1,1.3-.3,2.7-.5,4-.2,1.4-.5,2.8-.7,4.2-.9,5.7-2.3,11.7-4.1,17.9-1,3.1-2,6.2-3.2,9.4-1.2,3.1-2.6,6.3-4.3,9.3-3.3,6.1-7.6,12-13.1,16.9-2.7,2.4-5.8,4.5-9.1,6.1-3.3,1.6-6.9,2.7-10.5,3.4-3.7,.5-7.3,.6-11,.2-3.6-.5-7.1-1.2-10.5-2.5-6.7-2.4-12.7-6.3-17.6-10.8-4.9-4.6-8.8-9.9-11.5-15.2-2.8-5.4-4.7-10.8-6-15.9-2.5-10.2-2.9-19-2.9-25,0-3,.1-5.4,.2-7,.4-1.6,.4-2.5,.4-2.5h0Z"/>
  <path class="cls-6" d="M178.5,108.6s.2,.1,.6,.1c.4,.1,1,.2,1.8,.3,1.6,.2,3.9,.3,6.5-.4,2.6-.6,5.6-1.9,8.1-4,2.6-2.1,4.5-5.2,5.6-8.5,2.2-6.8,.8-14.3-1-19.7-.9-2.7-1.9-5-2.6-6.9-.7-1.8-1.2-3.1-1.4-3.6-.1-.5-.5-1.7-1-3.7-.4-1.9-.9-4.6-.8-7.8,.1-6.2,2.8-14.1,8.3-19.5,2.7-2.7,5.9-4.7,9.1-6,3.2-1.3,6.3-1.9,9-2s4.9,.1,6.4,.4c.8,.1,1.3,.3,1.7,.4s.6,.1,.6,.1c0,0-.2,0-.6-.1s-1-.2-1.8-.2c-1.5-.1-3.7-.2-6.3,.2-2.6,.4-5.5,1.3-8.3,2.8-2.9,1.5-5.6,3.6-7.7,6.3-4.4,5.3-6.1,12.3-5.6,17.5,.4,5.2,2.2,8.9,2.4,9.7,.1,.4,.5,1.7,1.1,3.5,.6,1.9,1.4,4.3,2.1,7.4,.7,3.1,1.2,6.6,1.2,10.4s-.6,7.8-2.2,11.5c-1.6,3.7-4.1,6.9-7.1,9s-6.3,3.1-9.1,3.5-5.1,.1-6.7-.3c-.8-.2-1.4-.3-1.8-.5-.3,.2-.5,.1-.5,.1h0Z"/>
  <path class="cls-6" d="M171.8,136.4s-.5-.6-1.5-1.7c-.9-1.1-2.2-2.7-3.6-4.8-2.8-4.1-5.9-10.2-7.6-16.9-1.7-6.7-1.8-14-.7-19.6s2.9-9.4,3.2-10.2c.4-.8,2.3-4.3,6-8.3,1.9-2,4.1-4.1,6.8-5.9,2.6-1.8,5.8-3.4,8.8-4.5s5.9-2.2,7.9-4.1c2.1-1.9,3.3-4.3,4-6.5,.8-2.2,1.1-4.1,1.3-5.5,.2-1.3,.3-2.1,.3-2.1,0,0,0,.8-.1,2.2s-.2,3.3-.7,5.7c-.5,2.3-1.5,5.1-3.6,7.5-2.1,2.5-5.2,4-8.1,5.4-5.7,2.7-10.3,7-13.1,10.9-2.9,3.9-4.2,7.1-4.6,7.8-.3,.7-2.2,3.9-3.6,8.7-1.4,4.8-2.1,11.5-1.1,18,.9,6.5,3.2,12.7,5.6,17,1.1,2.2,2.2,3.9,3,5.1,.9,1.2,1.3,1.8,1.4,1.8h0Z"/>
  <path class="cls-6" d="M93.2,108.8s-.1,.2-.2,.6c-.2,.4-.4,1-.7,1.8-.6,1.5-1.2,3.8-1.7,6.5-.4,2.7-.6,6-.1,9.4,.5,3.4,1.7,6.9,3.8,9.8,2.1,2.9,4.8,5.4,7.8,6.9s6.1,2.1,8.7,1.9c5.3-.4,8.6-3,9.3-3.4,.7-.4,4.1-2.3,7.4-6.6,3.4-4.2,6.4-10.9,8.5-17.8s3.6-13.9,4.6-19.2c1-5.3,1.6-8.7,1.6-8.7,0,0-.3,3.5-.8,8.8s-1.3,12.5-2.8,19.7c-1.4,7.2-3.8,14.6-7.3,19.8-3.4,5.3-7.5,8-8.3,8.6-.4,.3-1.7,1.1-3.8,1.9-2.1,.8-5,1.6-8.4,1.5-3.5-.1-7.3-1.2-10.7-3.3-3.4-2.1-6.3-5.2-8.3-8.7-2.1-3.5-3-7.5-3.2-11.1-.2-3.7,.3-7,1-9.8s1.6-4.9,2.3-6.4c.3-.7,.6-1.3,.8-1.7,.4-.3,.5-.5,.5-.5h0Z"/>
  <path class="cls-6" d="M103.9,231.4h-.7c-.5,0-1.2,0-2-.1-1.7-.1-4.2-.6-7.1-1.6-2.8-1-6.1-2.6-9.1-5-3.1-2.3-6-5.3-8.5-8.6-5-6.8-7.9-15-9.2-21.6-1.3-6.6-1.2-11.5-1.2-12.6,.1-1,.3-5.8,2-12,.9-3.1,2.1-6.6,3.9-10,1.9-3.4,4.5-6.8,7.7-9.3s7-4.2,10.7-4.9,7.1-.5,9.9,0,5,1.5,6.6,2.2c1.4,.8,2.3,1.2,2.3,1.2,0,0-.9-.4-2.4-1-1.6-.5-3.8-1.3-6.6-1.5-2.8-.3-6.1-.1-9.4,.8-3.3,.9-6.6,2.8-9.3,5.3-2.7,2.5-4.7,5.6-6.1,8.8s-2.2,6.5-2.8,9.4c-1.1,5.8-1,10.2-1,11.1s-.4,5.4,.3,11.6c.7,6.2,2.7,14,6.8,20.7,2.1,3.3,4.6,6.4,7.3,8.9,2.7,2.5,5.7,4.3,8.3,5.5s5.1,1.9,6.8,2.2c.8,.2,1.5,.2,2,.3,.5,.2,.8,.2,.8,.2h0Z"/>
  <path class="cls-6" d="M94.7,165.2s-.1,.6-.2,1.7c-.1,.5-.1,1.2-.1,1.9,.1,.8,0,1.6,.2,2.5,.4,3.6,2.4,8.3,5.7,11.8,1.7,1.7,3.6,3.1,5.6,4.1,2,.9,4,1.4,5.8,1.6,3.6,.4,6.2-.3,6.7-.3,.5-.1,3.1-.2,6.4-1.5,3.3-1.3,7.1-3.9,9.7-7.8,2.7-3.8,4.3-8.3,5.4-11.7,1.1-3.4,1.7-5.7,1.7-5.7,0,0-.3,2.3-.8,5.9-.6,3.5-1.5,8.4-3.8,12.9-1.1,2.3-2.6,4.5-4.4,6.3-1.8,1.8-3.8,3.2-5.6,4.3-3.7,2.1-6.9,2.7-7.6,2.8s-4,.6-8.4-.6c-2.2-.5-4.6-1.5-6.9-3-2.2-1.5-4.3-3.4-5.8-5.6-3.2-4.4-4.6-9.7-4.4-13.5,0-1,.1-1.8,.2-2.6,.2-.8,.2-1.4,.4-1.9,0-1,.2-1.6,.2-1.6h0Z"/>
  <path class="cls-6" d="M167.4,280.2s-7.9-3.5-15.4-8.6c-3.8-2.5-7.4-5.3-10.2-7.6-2.8-2.4-4.6-4.5-5-5-.3-.5-1.9-2.7-3.2-6.1s-2.4-7.8-2.8-12.1c-.4-4.4-.2-8.6,.1-11.7,.3-3.1,.7-5.1,.7-5.1,0,0,0,2.1,.2,5.2,.2,3.1,.7,7.2,1.7,11.2s2.7,7.8,4.3,10.6c1.6,2.7,3.1,4.4,3.4,4.8,.3,.4,1.6,2.4,3.8,5,2.3,2.6,5.4,5.8,8.6,8.8,6.6,5.8,13.8,10.6,13.8,10.6h0Z"/>
  <path class="cls-6" d="M30.4,275.1s-.1-.6-.2-1.6c0-1-.1-2.6,.3-4.4,.6-3.6,2.7-8.4,6.7-11.9,1.9-1.8,4.3-3.1,6.7-4s4.7-1.3,6.8-1.5c4-.5,6.8-.5,7.4-.6,2.4,0,38.3,2.9,38.3,2.9,0,0-35.9,2.7-38.3,2.7-.6,0-3.4-.3-7.1-.3s-8.2,.4-12,3c-3.8,2.5-6.5,6.6-7.5,9.9-.6,1.6-.8,3.1-.9,4.1-.1,1.1-.2,1.7-.2,1.7h0Z"/>
  <path class="cls-6" d="M27.8,144.1s.1,.4,.2,1.2,.4,1.9,.7,3.2c.8,2.6,2.4,5.9,4.7,8.7,2.2,2.8,5.1,5.1,7.5,6.4,2.4,1.4,4.3,1.9,4.6,2.1,.4,.1,2,1.1,4.5,1.9,2.5,.8,5.9,1.2,9.2,.7,3.4-.4,6.5-1.9,8.6-3.4,1-.8,1.8-1.6,2.3-2.1,.5-.6,.8-.9,.8-.9,0,0-.2,.4-.6,1.1-.4,.7-1,1.6-1.9,2.6-1.8,2-4.8,4.3-8.5,5.5-3.6,1.3-7.6,1.6-10.8,1.2-3.2-.3-5.3-1.2-5.8-1.4s-2.6-1.3-5.2-3.4c-2.5-2.1-5.2-5.2-7.1-8.7s-2.9-7.2-3.2-10c-.1-1.4-.2-2.6-.1-3.4,.1-.9,.2-1.3,.1-1.3h0Z"/>
  <path class="cls-6" d="M137.6,24.5s.1,.4,.3,1,.6,1.5,1.2,2.4c1.1,1.9,3.2,3.9,5.7,5.3s5.3,2.1,7.3,2.2c2,0,3.3-.5,3.6-.5s1.7-.2,3.8-.8,5-1.7,7.9-2.5c5.7-1.6,11.4-2.3,11.4-2.3,0,0-5.3,2-10.3,4.9-2.5,1.4-4.9,3-7,4.2-2.2,1.2-4.1,1.9-4.6,1.9-.4,.1-2.6,.4-5.4-.3-2.8-.7-5.9-2.3-8.2-4.6-2.4-2.2-4.1-5-4.9-7.2-.4-1.1-.6-2-.6-2.7-.1-.6-.1-1-.2-1h0Z"/>
  <path class="cls-6" d="M123.3,202.1c.2,.1,.3,.8-.1,1.9-.4,1.2-1.3,2.7-2.8,4.2-2.9,2.9-7.9,5.7-13.6,6.6-5.6,1-11.6-.2-15.7-2.1-4.1-1.9-6.6-4.1-6.9-4.4-1.4-1.3-1.4-3.3-.1-4.4,1.3-1.1,3.1-1.1,4.2-.1,.3,.2,2.1,2.1,5.3,3.9,3.2,1.8,7.9,3.1,12.8,2.8,4.8-.2,9.6-2.1,12.6-4.1,3-2.1,3.9-4.5,4.3-4.3h0Z"/>
  <path class="cls-6" d="M175.6,117.9c.2,0,.2,1.1,.6,2.5,.4,1.4,1.3,3.3,2.6,4.8,2.6,3.1,6.4,5.2,6.6,5.4,.6,.4,.7,1.1,.3,1.7-.4,.6-1.1,.7-1.7,.3-.2-.2-4-2.7-6.6-6.4-1.3-1.9-2-4-2.2-5.7-.1-1.5,.3-2.6,.4-2.6h0Z"/>
  <path class="cls-6" d="M118.9,127.2c0,.3-2,.6-5-.3-2.9-.8-6.6-3.1-9.1-6.7s-3.3-8.1-3-11.5c.2-3.4,1.3-5.7,1.4-6,.6-1.3,2.1-1.7,3.1-1s1.4,2,1,2.9c-.1,.2-1,1.9-1.4,4.6-.4,2.6-.1,6.3,1.6,9.3,1.7,3.1,4.6,5.5,7,6.7,2.6,1.3,4.5,1.7,4.4,2Z"/>
  <path class="cls-6" d="M224.3,39.8c0,.2-1.2,.4-3,1.1-1.7,.7-3.8,1.9-5.5,3.7-1.7,1.7-2.9,3.9-3.5,5.6-.6,1.7-.6,3-.6,3.2-.1,.7-.7,1.3-1.6,1.3-.8,0-1.5-.7-1.4-1.6,0-.2,.2-1.8,1.1-3.8,.8-2,2.5-4.4,4.6-6.2s4.6-2.9,6.6-3.2c2-.5,3.3-.3,3.3-.1h0Z"/>
  <path class="cls-6" d="M77.6,35.7c-.4,.4-6.3-4.1-13.5-6.2-3.5-1.1-7.2-1.8-10-2s-4.8-.1-5.1-.1c-1.1,0-2.1-.9-2.2-2.1-.1-1.2,.9-2.3,2.2-2.3,.3,0,2.5,0,5.6,.5,3.1,.4,7,1.5,10.6,3.1,3.7,1.5,6.9,3.7,9.1,5.6,2.3,1.8,3.5,3.3,3.3,3.5h0Z"/>
  <path class="cls-6" d="M36,27.5c1.9,0,1.9-3,0-3s-2,3,0,3h0Z"/>
  <path class="cls-6" d="M110.4,95.4c1.9,0,1.9-3,0-3s-1.9,3,0,3h0Z"/>
  <path class="cls-6" d="M185.9,89.5c1.9,0,1.9-3,0-3s-1.9,3,0,3h0Z"/>
  <path class="cls-6" d="M120.1,167.7c1.9,0,1.9-3,0-3s-1.9,3,0,3h0Z"/>
  <path class="cls-6" d="M71.6,272.3c1.9,0,1.9-3,0-3s-2,3,0,3h0Z"/>
  <path class="cls-6" d="M157,152.8c1.9,0,1.9-3,0-3s-1.9,3,0,3h0Z"/>
  <g class="cls-2">
    <path class="cls-5" d="M50.06,333.37c.05,.07,.02,.13-.07,.13h-.61c-.06,0-.1-.02-.13-.07l-7.29-11.54c-.07,0-.15,0-.22,0h-7.1l.05,11.5c0,.07-.04,.11-.11,.11h-.54c-.07,0-.11-.04-.11-.11l.05-13.28-.05-11.7c0-.07,.04-.11,.11-.11h7.34c5.18,0,8.3,2.36,8.3,6.8s-2.68,6.47-6.96,6.75l7.34,11.51Zm-15.38-24.46l-.05,11.23v1.13h7.11c4.61,0,7.22-2.02,7.22-6.17s-2.68-6.19-7.38-6.19h-6.9Z"/>
    <path class="cls-5" d="M85.74,308.39l9.3,24.99c.03,.08,0,.12-.08,.13h-.53c-.06,.01-.1-.01-.12-.07l-3.31-8.98h-11.38l-3.32,8.98c-.02,.06-.06,.09-.12,.08h-.5c-.08-.01-.11-.06-.08-.14l9.32-24.99c.02-.06,.06-.09,.12-.09h.59c.06,0,.1,.03,.12,.09Zm-.43,.63l-5.47,14.81h10.93l-5.45-14.81Z"/>
    <path class="cls-5" d="M122.09,333.39c0,.07-.04,.11-.11,.11h-.52c-.07,0-.11-.04-.11-.11l.04-11.99v-13c0-.07,.04-.11,.11-.11h.79c.06,0,.1,.03,.12,.08l9.86,24.1,9.85-24.1c.02-.06,.06-.08,.12-.08h.76c.07,0,.11,.04,.11,.11v13l.04,11.99c0,.07-.04,.11-.11,.11h-.52c-.07,0-.11-.04-.11-.11l.04-11.99,.02-12.11-9.85,24.12c-.02,.06-.06,.08-.12,.08h-.47c-.06,0-.1-.03-.12-.08l-9.86-24.03,.02,12.02,.04,11.99Z"/>
    <path class="cls-5" d="M171.84,333.39c0,.07-.04,.11-.11,.11h-.54c-.07,0-.11-.04-.11-.11l.05-12.6-.05-12.38c0-.07,.04-.11,.11-.11h.54c.07,0,.11,.04,.11,.11l-.05,12.38,.05,12.6Z"/>
    <path class="cls-5" d="M200.53,333.39c0,.07-.04,.11-.11,.11h-.54c-.07,0-.11-.04-.11-.11l.05-12.92-.04-12.06c0-.07,.04-.11,.11-.11h.47c.06,0,.1,.02,.13,.07l16.85,24.03,.04-11.93-.05-12.06c0-.07,.04-.11,.11-.11h.54c.07,0,.11,.04,.11,.11l-.05,12.06,.04,12.92c0,.07-.04,.11-.11,.11h-.62c-.06,0-.1-.02-.13-.07l-16.71-23.81-.04,10.85,.05,12.92Z"/>
    <path class="cls-5" d="M254.55,308.39l9.3,24.99c.03,.08,0,.12-.08,.13h-.53c-.06,.01-.1-.01-.12-.07l-3.31-8.98h-11.38l-3.32,8.98c-.02,.06-.06,.09-.12,.08h-.5c-.08-.01-.11-.06-.08-.14l9.32-24.99c.02-.06,.06-.09,.12-.09h.59c.06,0,.1,.03,.12,.09Zm-.43,.63l-5.47,14.81h10.93l-5.45-14.81Z"/>
  </g>
  <g class="cls-2">
    <path class="cls-5" d="M95.54,354.92c.84,0,1.23,.39,1.23,.95,0,.36-.2,.62-.56,.92-.31,.25-.62,.56-.67,.84-.11,.64,.59,.98,1.82,.98,2.27,0,5.32-1.26,7.87-3.22,2.55-1.93,4.65-4.26,6.08-6.97,.2-.39,.56-.87,.95-1.2,.45-.36,1.01-.56,1.51-.56,.48,0,.62,.22,.48,.39-.28,.39-.5,.92-.62,1.54-.2,.87-.31,2.13-.42,3.42-.17,2.16-.36,3.5-.7,4.31h.03c.59-.84,3.05-4.34,4.82-6.36,2.35-2.72,4.62-5.1,6.97-5.04,1.12,.03,1.82,.81,1.71,1.85-.03,.17-.06,.34-.14,.34-.06,0-.03-.14-.08-.34-.17-.53-.53-.87-1.46-.92-1.96-.11-4.65,2.38-6.58,4.4-2.63,2.74-4.17,5.01-6.13,7.87-.17,.25-.48,.56-.95,.45-.62-.14-.78-.42-.7-.73,.25-.78,.62-2.8,.67-4.51,.06-1.46,.17-3.14,.48-3.98h-.03c-1.12,2.16-3.53,4.65-5.71,6.3-2.69,2.02-5.68,3.28-8.06,3.33-1.88,.03-3.7-.59-3.7-2.16,0-1.29,1.09-1.9,1.9-1.9Z"/>
    <path class="cls-5" d="M123.96,353.38c.9,0,1.04,.11,.76,.45-.56,.67-.92,1.12-1.48,1.85-.36,.48-.84,1.15-.95,1.37-.11,.2-.11,.42,0,.5,.14,.11,.45,.06,.7-.06,.28-.11,.73-.42,1.18-.78,.59-.48,1.09-.92,1.37-1.18,.08-.08,.28-.25,.36-.17s-.14,.31-.25,.42c-.34,.34-1.15,1.04-1.68,1.46-1.2,.92-1.9,1.23-2.8,1.23-.73,0-1.15-.25-1.26-.73-.08-.34,.08-.76,.25-.98l-.03-.03c-.73,.64-2.1,1.74-3.58,1.74-1.01,0-1.68-.28-1.68-1.09,0-.48,.28-1.04,.9-1.68l-.03-.03s-.22,.2-.25,.22c-.25,.22-.39,.28-.45,.22-.06-.08,.03-.2,.2-.36,.42-.39,.76-.64,1.09-.87,.62-.42,1.2-.73,1.99-1.06,.67-.28,1.71-.59,2.72-.59,.92,0,1.09,.5,1.06,.9,.73-.76,.78-.76,1.88-.76Zm-5.32,2.04c-1.04,1.04-1.57,1.85-1.54,2.21,.03,.2,.17,.28,.36,.28,.53,0,1.6-.62,2.35-1.32,.87-.78,1.96-2.07,1.99-2.52,.03-.36-.2-.5-.5-.5-.56,0-1.62,.84-2.66,1.85Z"/>
    <path class="cls-5" d="M126.64,354.95c-.42,.34-.87,.73-1.15,.98-.2,.17-.34,.28-.42,.2s.03-.2,.2-.36c.28-.25,1.15-1.04,2.02-1.6,.76-.48,1.57-.81,2.58-.81,1.12,0,1.29,.11,.98,.45-.7,.76-1.09,1.2-1.62,1.88-.48,.59-.76,1.04-.92,1.37s-.2,.53-.08,.62c.11,.08,.31,.03,.59-.11,.34-.17,.76-.45,1.23-.84,.59-.48,.87-.76,1.32-1.15,.2-.17,.31-.25,.39-.17,.08,.08-.06,.2-.22,.36-.34,.34-1.18,1.09-1.65,1.46-.92,.7-1.79,1.23-2.97,1.23-.95,0-1.23-.36-1.23-.81,0-.36,.2-.76,.39-1.06,.59-.95,1.96-2.49,2.38-2.72-.48,.17-1.04,.5-1.79,1.09Zm6.08-4.45c-.48,.62-1.43,1.06-1.82,1.06-.17-.25-.22-.87-.03-1.29,.28-.62,.78-.73,1.48-.73,.59,0,.81,.39,.36,.95Z"/>
    <path class="cls-5" d="M132.72,354.67c-.5,.45-1.09,1.01-1.37,1.26-.11,.11-.22,.14-.28,.06-.06-.08,.08-.25,.31-.45,.48-.42,1.15-.98,1.85-1.6,.7-.92,2.21-2.74,3.42-4.12,.95-1.12,2.07-2.27,3.05-3.19,.45-.42,1.15-.81,1.96-.81,.48,0,.81,.14,.9,.31-.59,.48-2.77,2.77-4.26,4.59-1.88,2.27-4.31,5.49-4.56,6.3-.11,.31-.08,.5,.06,.59s.34,.06,.48,0c.42-.17,.87-.45,1.46-.9,.39-.31,1.04-.87,1.4-1.2,.17-.14,.25-.2,.34-.11,.08,.08-.08,.22-.31,.45-.31,.31-1.12,1.01-1.62,1.37-.87,.64-1.9,1.26-3.08,1.26-.98,0-1.29-.45-1.29-.95,0-.84,.9-2.04,1.6-2.83l-.03-.03Z"/>
    <path class="cls-5" d="M169.6,350.47c1.26-1.71,2.66-2.97,3.78-3.64,.64-.39,1.68-.78,2.46-.78,.5,0,1.01,.17,.95,.76-.08,.92-1.62,2.04-3.42,2.8-.25,.11-.53,.2-.78,.28-.42,.76-.98,1.85-1.48,2.91-2.13,4.28-6.61,5.85-10.36,6.1-1.43,.08-3.75-.03-4.98-.76-.87,.7-1.71,1.71-2.1,2.41-.08,.14-.11,.28-.2,.25s-.03-.25,0-.34c.28-.73,.95-1.65,1.85-2.6-.84-.59-1.51-1.57-1.43-2.8,.22-2.74,3.84-4.17,6.75-4.37,1.48-.11,3.78,.22,4.7,1.32,1.23-.45,2.86-1.09,4.26-1.54Zm-8.96,.48c-1.96,.14-4.51,1.48-4.7,3.89-.06,.9,.11,1.65,.45,2.16,.31-.28,.64-.53,.9-.73,.62-.45,.9-.64,1.51-1.04-.25-.25-.48-.62-.53-.98-.03-.14,0-.28,.08-.28,.06,0,.06,.08,.11,.22,.14,.42,.34,.67,.59,.9,1.2-.73,2.55-1.43,3.72-1.99,.59-.28,1.29-.59,1.93-.84-.64-1.2-2.72-1.43-4.06-1.32Zm-1.46,4.62c-.53,.34-.95,.64-1.48,1.04-.28,.22-.73,.56-.98,.78,.98,1.04,2.8,1.37,4.28,1.26,2.94-.25,5.12-2.18,7.2-5.88,.34-.56,.81-1.34,1.2-1.88v-.03c-1.18,.39-2.69,.95-3.86,1.43,.14,.22,.28,.64,.25,1.06-.17,1.85-2.55,2.86-4.34,2.86-.78,0-1.65-.22-2.27-.64Zm5.71-2.24c.03-.36-.03-.59-.08-.76-.56,.22-1.26,.53-1.9,.84-.92,.45-2.21,1.18-3.47,1.99,.59,.39,1.4,.53,1.99,.53,1.48,0,3.39-1.01,3.47-2.6Zm8.48-4.03c1.43-.62,2.97-1.57,3.14-2.49,.06-.39-.31-.56-.73-.5-.34,.06-.78,.34-1.23,.78-.59,.56-1.2,1.43-1.82,2.46,.17-.06,.5-.2,.64-.25Z"/>
    <path class="cls-5" d="M179.79,353.38c.9,0,1.04,.11,.76,.45-.56,.67-.92,1.12-1.48,1.85-.36,.48-.84,1.15-.95,1.37-.11,.2-.11,.42,0,.5,.14,.11,.45,.06,.7-.06,.28-.11,.73-.42,1.18-.78,.59-.48,1.09-.92,1.37-1.18,.08-.08,.28-.25,.36-.17s-.14,.31-.25,.42c-.34,.34-1.15,1.04-1.68,1.46-1.2,.92-1.9,1.23-2.8,1.23-.73,0-1.15-.25-1.26-.73-.08-.34,.08-.76,.25-.98l-.03-.03c-.73,.64-2.1,1.74-3.58,1.74-1.01,0-1.68-.28-1.68-1.09,0-.48,.28-1.04,.9-1.68l-.03-.03s-.22,.2-.25,.22c-.25,.22-.39,.28-.45,.22-.06-.08,.03-.2,.2-.36,.42-.39,.76-.64,1.09-.87,.62-.42,1.2-.73,1.99-1.06,.67-.28,1.71-.59,2.72-.59,.92,0,1.09,.5,1.06,.9,.73-.76,.78-.76,1.88-.76Zm-5.32,2.04c-1.04,1.04-1.57,1.85-1.54,2.21,.03,.2,.17,.28,.36,.28,.53,0,1.6-.62,2.35-1.32,.87-.78,1.96-2.07,1.99-2.52,.03-.36-.2-.5-.5-.5-.56,0-1.62,.84-2.66,1.85Z"/>
    <path class="cls-5" d="M182.7,354.67c-.5,.45-1.09,1.01-1.37,1.26-.11,.11-.22,.14-.28,.06s.08-.25,.31-.45c.48-.42,1.15-.98,1.85-1.6,.7-.92,2.21-2.74,3.42-4.12,.95-1.12,2.07-2.27,3.05-3.19,.45-.42,1.15-.81,1.96-.81,.48,0,.81,.14,.9,.31-.59,.48-2.77,2.77-4.26,4.59-1.88,2.27-4.31,5.49-4.56,6.3-.11,.31-.08,.5,.06,.59,.14,.08,.34,.06,.48,0,.42-.17,.87-.45,1.46-.9,.39-.31,1.04-.87,1.4-1.2,.17-.14,.25-.2,.34-.11,.08,.08-.08,.22-.31,.45-.31,.31-1.12,1.01-1.62,1.37-.87,.64-1.9,1.26-3.08,1.26-.98,0-1.29-.45-1.29-.95,0-.84,.9-2.04,1.6-2.83l-.03-.03Z"/>
    <path class="cls-5" d="M187.07,355.9c-.31,.28-.39,.34-.48,.25-.06-.08,.03-.2,.17-.34,.28-.28,.56-.5,.95-.78,.22-.17,.67-.45,1.06-.67,.84-.48,2.32-1.12,3.53-1.12,.45,0,.76,.06,.76,.2,0,.06-.22,.11-.45,.22-.62,.31-1.29,.84-2.02,1.54-.73,.73-1.6,1.96-1.6,2.58,0,.17,.11,.36,.36,.36,.67,0,1.9-.9,2.83-1.79-.03-.34,.06-.76,.42-1.32,.31-.45,.64-.67,.92-.9,0-.11-.03-.28-.06-.36-.06-.22-.17-.31-.08-.39,.06-.06,.42,.03,.73,.22,.28,.17,.56,.5,.56,.98,0,.67-.62,1.65-1.57,2.44,.06,.06,.2,.08,.31,.08,.36,0,.78-.2,1.12-.45,.56-.42,1.09-.9,1.37-1.15,.11-.11,.22-.17,.31-.11,.06,.06,.06,.14-.03,.22-.34,.31-.95,.87-1.54,1.29-.36,.25-.76,.48-1.29,.48-.2,0-.45-.08-.53-.17-.73,.56-2.52,1.2-3.64,1.2-1.68,0-2.27-.62-2.3-1.4-.03-.5,.2-1.04,.67-1.51l-.03-.03c-.11,.08-.25,.22-.48,.42Z"/>
    <path class="cls-5" d="M202.35,357.25c.08-.48,.36-.87,.95-1.6,.39-.48,.84-.98,1.12-1.37,.11-.14,.11-.31-.06-.36-.17-.06-.48,.03-.87,.22-.59,.31-1.29,.76-2.02,1.29-1.32,.95-2.04,1.54-3.22,2.49-.31,.25-.67,.31-1.4,.36-.9,.06-1.01-.06-.84-.45,.25-.53,.78-1.23,1.29-1.88,.48-.62,.87-1.06,1.2-1.54,.11-.17,.17-.31,.06-.39-.08-.06-.22-.03-.45,.11-.31,.2-.67,.45-.98,.7-.42,.34-.98,.81-1.26,1.06-.25,.22-.39,.31-.48,.22-.03-.06,0-.14,.2-.34,.39-.36,.98-.9,1.46-1.26,.78-.62,1.76-1.29,2.8-1.29,.87,0,1.12,.34,1.12,.76s-.36,.9-.62,1.23c-.42,.56-.87,1.09-1.29,1.6l.06,.06c.5-.45,1.51-1.23,2.66-2.04,.95-.67,2.35-1.6,3.75-1.6,.81,0,1.23,.34,1.2,.9-.03,.5-.56,1.15-1.01,1.71-.42,.53-.67,.84-.84,1.12-.2,.31-.22,.53-.06,.64,.14,.08,.45,0,.7-.14,.42-.22,.84-.5,1.15-.76,.39-.31,1.12-.95,1.4-1.2,.17-.14,.25-.2,.34-.11,.06,.06,.03,.14-.08,.25-.34,.31-1.29,1.15-1.85,1.57-.64,.48-1.71,1.15-2.74,1.18-1.32,.03-1.48-.64-1.4-1.15Z"/>
  </g>
</svg>